<?xml version="1.0" encoding="UTF-8" standalone="no"?>
<svg
   xmlns:dc="http://purl.org/dc/elements/1.1/"
   xmlns:cc="http://creativecommons.org/ns#"
   xmlns:rdf="http://www.w3.org/1999/02/22-rdf-syntax-ns#"
   xmlns:svg="http://www.w3.org/2000/svg"
   xmlns="http://www.w3.org/2000/svg"
   xmlns:sodipodi="http://sodipodi.sourceforge.net/DTD/sodipodi-0.dtd"
   xmlns:inkscape="http://www.inkscape.org/namespaces/inkscape"
   id="sc-instagram"
   viewBox="0 0 50 50"
   version="1.1"
   sodipodi:docname="instagram.svg"
   inkscape:version="0.92.3 (2405546, 2018-03-11)">
  <metadata
     id="metadata4630">
    <rdf:RDF>
      <cc:Work
         rdf:about="">
        <dc:format>image/svg+xml</dc:format>
        <dc:type
           rdf:resource="http://purl.org/dc/dcmitype/StillImage" />
        <dc:title></dc:title>
      </cc:Work>
    </rdf:RDF>
  </metadata>
  <defs
     id="defs4628" />
  <sodipodi:namedview
     pagecolor="#ffffff"
     bordercolor="#666666"
     borderopacity="1"
     objecttolerance="10"
     gridtolerance="10"
     guidetolerance="10"
     inkscape:pageopacity="0"
     inkscape:pageshadow="2"
     inkscape:window-width="1920"
     inkscape:window-height="1029"
     id="namedview4626"
     showgrid="false"
     inkscape:pagecheckerboard="true"
     inkscape:zoom="4.72"
     inkscape:cx="0.52966102"
     inkscape:cy="25"
     inkscape:window-x="0"
     inkscape:window-y="51"
     inkscape:window-maximized="0"
     inkscape:current-layer="sc-instagram" />
  <g
     id="g4623"
     style="fill:#ffffff">
    <path
       d="M25,11.8c4.1,0,4.6,0,6.2,0.1c1.5,0.1,2.3,0.3,2.8,0.5c0.7,0.3,1.2,0.6,1.8,1.1c0.5,0.5,0.9,1,1.1,1.8   c0.2,0.5,0.5,1.4,0.5,2.8c0.1,1.6,0.1,2.1,0.1,6.2s0,4.6-0.1,6.2c-0.1,1.5-0.3,2.3-0.5,2.8c-0.3,0.7-0.6,1.2-1.1,1.8   c-0.5,0.5-1,0.9-1.8,1.1c-0.5,0.2-1.4,0.5-2.8,0.5c-1.6,0.1-2.1,0.1-6.2,0.1s-4.6,0-6.2-0.1c-1.5-0.1-2.3-0.3-2.8-0.5   c-0.7-0.3-1.2-0.6-1.8-1.1c-0.5-0.5-0.9-1-1.1-1.8c-0.2-0.5-0.5-1.4-0.5-2.8c-0.1-1.6-0.1-2.1-0.1-6.2s0-4.6,0.1-6.2   c0.1-1.5,0.3-2.3,0.5-2.8c0.3-0.7,0.6-1.2,1.1-1.8c0.5-0.5,1-0.9,1.8-1.1c0.5-0.2,1.4-0.5,2.8-0.5C20.4,11.8,20.9,11.8,25,11.8    M25,9c-4.2,0-4.7,0-6.3,0.1c-1.6,0.1-2.7,0.3-3.7,0.7c-1,0.4-1.9,0.9-2.7,1.8c-0.9,0.9-1.4,1.7-1.8,2.7c-0.4,1-0.6,2.1-0.7,3.7   c-0.1,1.6-0.1,2.2-0.1,6.3c0,4.2,0,4.7,0.1,6.3c0.1,1.6,0.3,2.7,0.7,3.7c0.4,1,0.9,1.9,1.8,2.7c0.9,0.9,1.7,1.4,2.7,1.8   c1,0.4,2.1,0.6,3.7,0.7c1.6,0.1,2.2,0.1,6.3,0.1s4.7,0,6.3-0.1c1.6-0.1,2.7-0.3,3.7-0.7c1-0.4,1.9-0.9,2.7-1.8   c0.9-0.9,1.4-1.7,1.8-2.7c0.4-1,0.6-2.1,0.7-3.7c0.1-1.6,0.1-2.2,0.1-6.3s0-4.7-0.1-6.3c-0.1-1.6-0.3-2.7-0.7-3.7   c-0.4-1-0.9-1.9-1.8-2.7c-0.9-0.9-1.7-1.4-2.7-1.8c-1-0.4-2.1-0.6-3.7-0.7C29.7,9,29.2,9,25,9L25,9z"
       id="path4617"
       style="fill:#ffffff" />
    <path
       d="M25,16.5c-4.3,0-7.9,3.5-7.9,7.9s3.5,7.9,7.9,7.9s7.9-3.5,7.9-7.9S29.3,16.5,25,16.5z M25,29.4c-2.8,0-5.1-2.3-5.1-5.1   c0-2.8,2.3-5.1,5.1-5.1c2.8,0,5.1,2.3,5.1,5.1C30.1,27.1,27.8,29.4,25,29.4z"
       id="path4619"
       style="fill:#ffffff" />
    <circle
       cx="33.2"
       cy="16.2"
       r="1.8"
       id="circle4621"
       style="fill:#ffffff" />
  </g>
</svg>
