<?xml version="1.0" encoding="UTF-8" standalone="no"?>
<svg
   xmlns:dc="http://purl.org/dc/elements/1.1/"
   xmlns:cc="http://creativecommons.org/ns#"
   xmlns:rdf="http://www.w3.org/1999/02/22-rdf-syntax-ns#"
   xmlns:svg="http://www.w3.org/2000/svg"
   xmlns="http://www.w3.org/2000/svg"
   xmlns:sodipodi="http://sodipodi.sourceforge.net/DTD/sodipodi-0.dtd"
   xmlns:inkscape="http://www.inkscape.org/namespaces/inkscape"
   id="sc-linkedin"
   viewBox="0 0 50 50"
   version="1.1"
   sodipodi:docname="linkedin.svg"
   inkscape:version="0.92.3 (2405546, 2018-03-11)">
  <metadata
     id="metadata4647">
    <rdf:RDF>
      <cc:Work
         rdf:about="">
        <dc:format>image/svg+xml</dc:format>
        <dc:type
           rdf:resource="http://purl.org/dc/dcmitype/StillImage" />
        <dc:title></dc:title>
      </cc:Work>
    </rdf:RDF>
  </metadata>
  <defs
     id="defs4645" />
  <sodipodi:namedview
     pagecolor="#ffffff"
     bordercolor="#666666"
     borderopacity="1"
     objecttolerance="10"
     gridtolerance="10"
     guidetolerance="10"
     inkscape:pageopacity="0"
     inkscape:pageshadow="2"
     inkscape:window-width="1920"
     inkscape:window-height="1029"
     id="namedview4643"
     showgrid="false"
     inkscape:pagecheckerboard="true"
     inkscape:zoom="16.82"
     inkscape:cx="25"
     inkscape:cy="25"
     inkscape:window-x="0"
     inkscape:window-y="51"
     inkscape:window-maximized="0"
     inkscape:current-layer="sc-linkedin" />
  <path
     d="M36.1 12H13.9c-1.1 0-1.9.8-1.9 1.9v22.2c0 1 .9 1.9 1.9 1.9h22.2c1.1 0 1.9-.8 1.9-1.9V13.9c0-1.1-.9-1.9-1.9-1.9zM20 34h-4V22h4v12zm-2-13.6c-1.3 0-2.4-1.1-2.4-2.4 0-1.3 1.1-2.4 2.4-2.4 1.3 0 2.4 1.1 2.4 2.4 0 1.3-1.1 2.4-2.4 2.4zM34 34h-4v-6c0-1.6-.4-3.2-2-3.2s-2 1.6-2 3.2v6h-4V22h4v1.4h.2c.5-1 1.8-1.8 3.3-1.8 3.7 0 4.5 2.4 4.5 5.4v7z"
     id="path4640"
     style="fill:#ffffff" />
</svg>
